<svg xmlns="http://www.w3.org/2000/svg" viewBox="0 0 53 53"><path fill="#474646" d="m31.842 10.439-1.568 4.503h-7.55l-1.568-4.503a1.33 1.33 0 0 1 1.257-1.768h8.173a1.33 1.33 0 0 1 1.256 1.768z"/><path fill="#fff" d="m23.093 12.794-.689-1.978a.5.5 0 0 1 .945-.328l.689 1.977a.5.5 0 0 1-.945.329z" opacity=".3"/><path fill="#2d2c2c" d="m31.84 10.439-1.57 4.5h-7.55l-.27-.79h5.071a2.52 2.52 0 0 0 2.38-1.69l.98-2.81c.11-.33.09-.66-.04-.95.77.14 1.27.96 1 1.74z"/><path fill="#a2a2f9" d="M39.06 43.787v5.595c0 .618-.502 1.12-1.12 1.12H15.058c-.618 0-1.119-.502-1.119-1.12v-5.595a3.401 3.401 0 0 1 3.402-3.401h18.317a3.401 3.401 0 0 1 3.401 3.401z"/><path fill="#fff" d="M18.765 43.457h-.56a.75.75 0 0 1 0-1.5h.56a.75.75 0 0 1 0 1.5zm6.476 0H21.64a.75.75 0 0 1 0-1.5h3.601a.75.75 0 0 1 0 1.5z" opacity=".3"/><path fill="#5e5eef" d="M13.94 48.48v.899c0 .62.5 1.12 1.12 1.12h22.88c.62 0 1.12-.5 1.12-1.12v-.9H13.94z"/><path fill="#474646" d="M30.43 19.23h-7.862c.243 7.976-.758 15.453-4.952 21.156h17.767c-4.195-5.703-5.196-13.18-4.952-21.155z"/><path fill="#fff" d="M23.484 32.14a.75.75 0 0 1-.731-.92c.358-1.546.624-3.208.789-4.94a.757.757 0 0 1 .818-.676c.412.04.715.406.676.818a39.373 39.373 0 0 1-.822 5.137.75.75 0 0 1-.73.58zm.972-7.45h-.035a.749.749 0 0 1-.715-.784c.012-.251.02-.503.027-.756a.751.751 0 0 1 1.5.04c-.007.262-.017.523-.029.784a.75.75 0 0 1-.748.716z" opacity=".3"/><path fill="#2d2c2c" d="M35.38 40.389H17.62c.4-.55.77-1.11 1.11-1.69h2.043c4.87 0 8.565-4.492 7.5-9.244-.718-3.208-.977-6.656-.952-10.226h3.11c-.24 7.98.76 15.45 4.95 21.16z"/><path fill="#a2a2f9" d="M33.062 17.086c0 1.184-.96 2.145-2.146 2.145h-8.834a2.145 2.145 0 0 1 0-4.29h8.834c1.185 0 2.146.96 2.146 2.145z"/><path fill="#5e5eef" d="M33.06 17.089c0 1.18-.96 2.14-2.14 2.14h-8.84c-.96 0-1.77-.63-2.04-1.5.35.25.77.39 1.23.39h8.83c1.19 0 2.15-.96 2.15-2.14 0-.22-.03-.44-.1-.64.55.38.91 1.02.91 1.75z"/><path fill="#a2a2f9" d="M29.97 5.509c0 .43-.35.77-.77.77h-1.93v2.39h-1.54v-2.39H23.8c-.43 0-.77-.34-.77-.77s.34-.77.77-.77h1.93v-1.47c0-.42.34-.77.77-.77.42 0 .77.35.77.77v1.47h1.93c.42 0 .77.34.77.77z"/><path fill="#5e5eef" d="M26.92 2.919c0-.12-.03-.24-.08-.34.25.13.43.39.43.69v1.46h-.35v-1.81zm3.05 2.59c0 .43-.35.77-.77.77h-1.93v2.39h-1.54v-.35h1.19v-2.07a.32.32 0 0 1 .32-.32h1.61a.77.77 0 0 0 .69-1.11c.25.12.43.38.43.69z"/><path fill="#fff" d="M26.553 16.546h-2.466a.375.375 0 0 1 0-.75h2.466a.375.375 0 0 1 0 .75zm-4.114 0h-.309a.375.375 0 0 1 0-.75h.309a.375.375 0 0 1 0 .75z" opacity=".3"/></svg>